<?xml version="1.0" encoding="utf-8"?>
<!-- Generator: Adobe Illustrator 14.0.0, SVG Export Plug-In  -->
<!DOCTYPE svg PUBLIC "-//W3C//DTD SVG 1.1//EN" "http://www.w3.org/Graphics/SVG/1.1/DTD/svg11.dtd" [
	<!ENTITY ns_flows "http://ns.adobe.com/Flows/1.0/">
]>
<svg version="1.1"
	 xmlns="http://www.w3.org/2000/svg" xmlns:xlink="http://www.w3.org/1999/xlink" xmlns:a="http://ns.adobe.com/AdobeSVGViewerExtensions/3.0/"
	 x="0px" y="0px" width="100px" height="100px" viewBox="-24 -26 100 100" enable-background="new -24 -26 100 100"
	 xml:space="preserve">
<defs>
</defs>
<g display="none">
	<g display="inline">
		<path fill="#00A99D" d="M52.5,6.5h-51C0.671,6.5,0,7.171,0,8v32c0,0.829,0.671,1.5,1.5,1.5h51c0.829,0,1.5-0.671,1.5-1.5V8
			C54,7.171,53.329,6.5,52.5,6.5z M51,38.5H3v-29h48V38.5z M19.993,15.505v16.988l14.004-8.494L19.993,15.505z"/>
	</g>
</g>
<g>
	<g>
		<path fill="#00A99D" d="M49.5,4.5h-45C3.671,4.5,3,5.171,3,6v36c0,0.829,0.671,1.5,1.5,1.5h45c0.829,0,1.5-0.671,1.5-1.5V6
			C51,5.171,50.329,4.5,49.5,4.5z M48,40.5H6V18.246h42V40.5z M48,15.246H6V7.5h42V15.246z M10.848,12.751
			c0.758,0,1.372-0.615,1.372-1.373s-0.614-1.373-1.372-1.373c-0.759,0-1.373,0.615-1.373,1.373S10.089,12.751,10.848,12.751z
			 M16.189,12.751c0.758,0,1.372-0.615,1.372-1.373s-0.614-1.373-1.372-1.373c-0.759,0-1.373,0.615-1.373,1.373
			S15.431,12.751,16.189,12.751z M21.531,12.751c0.758,0,1.372-0.615,1.372-1.373s-0.614-1.373-1.372-1.373
			c-0.759,0-1.373,0.615-1.373,1.373S20.772,12.751,21.531,12.751z"/>
	</g>
</g>
<path display="none" fill="#00A99D" d="M27,48c-8.271,0-15-6.729-15-15V15c0-8.271,6.729-15,15-15s15,6.729,15,15v18
	C42,41.271,35.271,48,27,48z M27,3c-6.617,0-12,5.383-12,12v18c0,6.617,5.383,12,12,12c6.617,0,12-5.383,12-12V15
	C39,8.383,33.617,3,27,3z M27.184,20.53c-2.069,0-3.75-1.681-3.75-3.75v-4.5c0-2.068,1.682-3.75,3.75-3.75
	c2.068,0,3.75,1.682,3.75,3.75v4.5C30.934,18.849,29.252,20.53,27.184,20.53z M27.184,11.53c-0.414,0-0.75,0.337-0.75,0.75v4.5
	c0,0.414,0.337,0.75,0.75,0.75c0.412,0,0.75-0.336,0.75-0.75v-4.5C27.934,11.867,27.596,11.53,27.184,11.53z"/>
<g display="none">
	<g display="inline">
		<path fill="#00A99D" d="M45.996,6.622c0.332-1.051-0.788-2.17-1.839-1.838L32.032,8.607c-0.002,0-0.003,0.001-0.005,0.001
			l-0.023,0.007c-0.017,0.005-0.031,0.016-0.048,0.021c-0.069,0.024-0.139,0.049-0.205,0.084c-0.016,0.008-0.028,0.021-0.044,0.029
			c-0.031,0.018-0.061,0.04-0.09,0.06c-0.066,0.044-0.127,0.091-0.184,0.144c-0.015,0.013-0.031,0.021-0.045,0.035L7.676,32.703
			c-0.584,0.584-0.592,1.522-0.017,2.097l8.32,8.32c0.575,0.575,1.513,0.567,2.097-0.017l4.742-4.742c0,0,0,0,0,0l0,0L41.789,19.39
			c0.013-0.013,0.021-0.029,0.033-0.042c0.054-0.058,0.102-0.121,0.147-0.188c0.02-0.029,0.04-0.057,0.059-0.087
			c0.009-0.016,0.021-0.029,0.029-0.045c0.035-0.067,0.06-0.136,0.084-0.206c0.006-0.017,0.017-0.031,0.021-0.048l0.008-0.024
			c0-0.001,0-0.002,0.001-0.003L45.996,6.622z M39.876,16.214l-3.496-1.814l-1.814-3.496l7.757-2.446L39.876,16.214z M21.795,35.224
			l-6.24-6.239l16.477-16.478l1.921,3.7c0.07,0.134,0.158,0.252,0.262,0.357c0.105,0.104,0.225,0.192,0.357,0.262l3.7,1.92
			L21.795,35.224z M17.053,39.967l-6.24-6.24l2.628-2.629l6.24,6.24L17.053,39.967z"/>
	</g>
</g>
</svg>
